<svg width="208" height="88" viewBox="0 0 208 88" fill="none" xmlns="http://www.w3.org/2000/svg">
<rect x="0.5" y="0.5" width="207" height="87" rx="7.5" fill="white" />
<g clip-path="url(#clip0_129_12)">
<path d="M119.714 30H88.2857C87.0235 30 86 31.0234 86 32.2857V55.7143C86 56.9765 87.0235 57.9999 88.2857 57.9999H119.714C120.977 57.9999 122 56.9765 122 55.7142V32.2857C122 31.0234 120.977 30 119.714 30ZM119.714 32.2857V48.909L115.21 44.8136C114.533 44.1982 113.491 44.2228 112.845 44.8702L108.286 49.4285L99.2966 38.6914C98.6171 37.8799 97.3725 37.8719 96.6829 38.6736L88.2857 48.4325V32.2857H119.714ZM110 38.2857C110 36.5497 111.407 35.1428 113.143 35.1428C114.879 35.1428 116.286 36.5497 116.286 38.2857C116.286 40.0217 114.879 41.4285 113.143 41.4285C111.407 41.4285 110 40.0217 110 38.2857Z" fill="#C3C3C3"/>
</g>
<defs>
<clipPath id="clip0_129_12">
<rect width="36" height="35.9999" fill="white" transform="translate(86 26)"/>
</clipPath>
</defs>
</svg>
